<?xml version="1.0" standalone="no"?>
<!DOCTYPE svg PUBLIC "-//W3C//DTD SVG 20010904//EN"
 "http://www.w3.org/TR/2001/REC-SVG-20010904/DTD/svg10.dtd">
<svg version="1.0" xmlns="http://www.w3.org/2000/svg"
 width="700.000000pt" height="700.000000pt" viewBox="0 0 700.000000 700.000000"
 preserveAspectRatio="xMidYMid meet">
<metadata>
Created by potrace 1.11, written by Peter Selinger 2001-2013
</metadata>
<g transform="translate(0.000000,700.000000) scale(0.100000,-0.100000)"
fill="#000000" stroke="none">
<path d="M615 6979 c-292 -72 -524 -306 -595 -599 -20 -84 -20 -104 -20 -2880
0 -2776 0 -2796 20 -2880 71 -295 305 -529 600 -600 84 -20 104 -20 2880 -20
2776 0 2796 0 2880 20 295 71 529 305 600 600 20 84 20 104 20 2880 0 2776 0
2796 -20 2880 -71 295 -305 529 -600 600 -84 20 -103 20 -2885 19 -2748 0
-2801 -1 -2880 -20z m4631 -1440 c290 -28 608 -127 835 -260 89 -51 292 -204
340 -256 l37 -38 -140 -190 c-189 -258 -195 -265 -242 -286 -48 -22 -124 -24
-169 -6 -18 8 -86 48 -152 89 -154 96 -177 108 -310 153 -139 48 -253 65 -430
65 -368 0 -638 -109 -868 -350 -174 -181 -286 -422 -344 -735 -26 -144 -26
-576 1 -720 65 -352 227 -652 452 -835 157 -129 304 -199 506 -241 81 -17 138
-21 268 -21 262 0 425 30 585 107 84 40 125 66 291 189 56 42 75 50 120 54 31
3 67 -1 84 -8 24 -10 388 -384 398 -409 4 -11 -124 -150 -207 -224 -214 -190
-507 -334 -810 -396 -225 -47 -550 -64 -782 -41 -710 70 -1275 445 -1578 1047
-52 104 -124 281 -150 368 -126 429 -139 982 -31 1400 215 833 848 1406 1690
1529 58 9 123 17 145 19 95 8 360 6 461 -4z m-2586 -1435 c0 -882 -4 -1449
-11 -1542 -64 -897 -571 -1392 -1423 -1392 -146 0 -339 18 -486 45 -47 9 -100
18 -118 22 -19 3 -36 11 -38 17 -2 6 7 132 20 280 27 292 33 311 95 353 49 33
106 37 223 17 132 -22 319 -23 411 0 196 47 319 168 386 377 57 177 54 107 58
1727 l4 1492 439 0 440 0 0 -1396z"/>
</g>
</svg>
