<svg width="36" height="35" viewBox="0 0 36 35" fill="none" xmlns="http://www.w3.org/2000/svg">
<path d="M18 0.000937426C13.2766 -0.0479056 8.72734 1.81366 5.35211 5.17651C1.97687 8.53935 0.0518076 13.1283 0 17.9349C0.0182003 21.7334 1.219 25.4283 3.42992 28.489C5.64084 31.5496 8.74812 33.8184 12.3055 34.9696C13.2055 35.1361 13.5327 34.5866 13.5327 34.1037V31.0564C8.52546 32.1388 7.46182 28.6586 7.46182 28.6586C7.12849 27.5661 6.41983 26.6321 5.46545 26.0276C3.82909 24.9286 5.59636 24.9452 5.59636 24.9452C6.16197 25.0222 6.70313 25.2285 7.17923 25.5486C7.65534 25.8687 8.05405 26.2943 8.34545 26.7936C8.85327 27.6897 9.68651 28.347 10.6658 28.6242C11.6452 28.9014 12.6923 28.7762 13.5818 28.2756C13.6733 27.3637 14.0791 26.5142 14.7273 25.8777C10.7345 25.4281 6.54545 23.8962 6.54545 17.019C6.50975 15.2251 7.16112 13.4874 8.36182 12.1734C7.81499 10.6332 7.87956 8.93678 8.54182 7.44426C8.54182 7.44426 10.0636 6.96136 13.4509 9.27596C16.3995 8.4764 19.5024 8.4764 22.4509 9.27596C25.8873 6.96136 27.36 7.44426 27.36 7.44426C28.0223 8.93678 28.0868 10.6332 27.54 12.1734C28.7686 13.4633 29.4553 15.1893 29.4545 16.9857C29.4545 23.8795 25.2327 25.3948 21.2727 25.8444C21.7063 26.2728 22.0413 26.7937 22.2535 27.3695C22.4657 27.9454 22.5499 28.5619 22.5 29.1748V34.087C22.5 34.6699 22.8273 35.1361 23.7273 34.9529C27.2745 33.7946 30.3713 31.5253 32.5754 28.469C34.7795 25.4127 35.9781 21.7258 36 17.9349C35.9482 13.1283 34.0231 8.53935 30.6479 5.17651C27.2727 1.81366 22.7234 -0.0479056 18 0.000937426" fill="#171515"/>
</svg>
