<svg width="260" height="260" viewBox="0 0 260 260" fill="none" xmlns="http://www.w3.org/2000/svg">
<g clip-path="url(#clip0)">
<path d="M0 30C0 13.4315 13.4315 0 30 0H230C246.569 0 260 13.4315 260 30V230C260 246.569 246.569 260 230 260H30C13.4315 260 0 246.569 0 230V30Z" fill="#6357FF"/>
<path d="M224.4 175.73C226.233 175.73 227.773 176.39 229.02 177.71L242.11 191.68C235.657 199.893 227.627 206.127 218.02 210.38C208.487 214.633 197.12 216.76 183.92 216.76C171.967 216.76 161.223 214.743 151.69 210.71C142.157 206.603 134.053 200.92 127.38 193.66C120.707 186.4 115.573 177.783 111.98 167.81C108.387 157.837 106.59 146.947 106.59 135.14C106.59 127.22 107.433 119.703 109.12 112.59C110.88 105.403 113.41 98.8033 116.71 92.79C120.01 86.7767 123.97 81.35 128.59 76.51C133.283 71.67 138.563 67.5633 144.43 64.19C150.297 60.7433 156.677 58.14 163.57 56.38C170.537 54.5467 177.943 53.63 185.79 53.63C191.657 53.63 197.193 54.1433 202.4 55.17C207.68 56.1967 212.593 57.6267 217.14 59.46C221.687 61.2933 225.867 63.53 229.68 66.17C233.567 68.7367 237.05 71.56 240.13 74.64L229.02 89.82C228.36 90.7733 227.517 91.6167 226.49 92.35C225.463 93.0833 224.07 93.45 222.31 93.45C220.55 93.45 218.753 92.8267 216.92 91.58C215.16 90.3333 212.96 88.94 210.32 87.4C207.753 85.86 204.49 84.4667 200.53 83.22C196.643 81.9733 191.693 81.35 185.68 81.35C179.007 81.35 172.883 82.56 167.31 84.98C161.737 87.4 156.933 90.92 152.9 95.54C148.94 100.087 145.86 105.697 143.66 112.37C141.46 119.043 140.36 126.633 140.36 135.14C140.36 143.72 141.533 151.383 143.88 158.13C146.3 164.803 149.563 170.45 153.67 175.07C157.85 179.69 162.69 183.21 168.19 185.63C173.763 187.977 179.703 189.15 186.01 189.15C189.75 189.15 193.123 188.967 196.13 188.6C199.21 188.233 202.033 187.61 204.6 186.73C207.24 185.85 209.697 184.713 211.97 183.32C214.317 181.927 216.663 180.167 219.01 178.04C219.817 177.38 220.66 176.83 221.54 176.39C222.42 175.95 223.373 175.73 224.4 175.73Z" fill="white"/>
<path d="M98.8795 157.8C98.8795 166.747 97.7795 174.85 95.5795 182.11C93.3795 189.297 90.0429 195.493 85.5695 200.7C81.1695 205.833 75.6329 209.793 68.9595 212.58C62.2862 215.367 54.5129 216.76 45.6395 216.76C41.6062 216.76 37.6095 216.503 33.6495 215.99C29.7629 215.55 25.6562 214.817 21.3295 213.79C21.6229 210.563 21.9162 207.337 22.2095 204.11C22.5029 200.883 22.7962 197.657 23.0895 194.43C23.3095 192.67 24.0062 191.277 25.1795 190.25C26.3529 189.15 28.0395 188.6 30.2395 188.6C31.4862 188.6 33.0629 188.82 34.9695 189.26C36.9495 189.7 39.3695 189.92 42.2295 189.92C46.1895 189.92 49.6362 189.37 52.5695 188.27C55.5029 187.17 57.9595 185.373 59.9395 182.88C61.9195 180.387 63.3862 177.16 64.3395 173.2C65.3662 169.167 65.8795 164.29 65.8795 158.57V55.39H98.8795V157.8Z" fill="white"/>
</g>
<defs>
<clipPath id="clip0">
<rect width="260" height="260" fill="white"/>
</clipPath>
</defs>
</svg>
