<svg width="32" height="32" viewBox="0 0 32 32" fill="none" xmlns="http://www.w3.org/2000/svg">
<path d="M32 0H0V32H32V0Z" fill="#12100E"/>
<path d="M7.63637 11.1944C7.66308 10.9305 7.56245 10.6697 7.3654 10.492L5.35816 8.07401V7.71281H11.5906L16.408 18.2779L20.6432 7.71281H26.5846V8.07401L24.8684 9.71948C24.7205 9.83226 24.6471 10.0176 24.6778 10.2011V22.2912C24.6471 22.4747 24.7205 22.66 24.8684 22.7728L26.5445 24.4183V24.7795H18.1141V24.4183L19.8504 22.7327C20.021 22.5621 20.021 22.512 20.021 22.2511V12.4786L15.1936 24.7393H14.5412L8.921 12.4786V20.6959C8.87414 21.0414 8.98888 21.3892 9.23212 21.6391L11.4903 24.3781V24.7393H5.08719V24.3781L7.34532 21.6391C7.58679 21.3888 7.69484 21.0387 7.63637 20.6959V11.1944Z" fill="white"/>
</svg>
