<svg width="32" height="32" viewBox="0 0 32 32" fill="none" xmlns="http://www.w3.org/2000/svg">
<path d="M32 0H0V32H32V0Z" fill="#1DA1F2"/>
<path d="M12.288 24.128C19.832 24.128 23.96 17.872 23.96 12.456C23.96 12.28 23.96 12.104 23.952 11.928C24.752 11.352 25.448 10.624 26 9.79999C25.264 10.128 24.472 10.344 23.64 10.448C24.488 9.94399 25.136 9.13599 25.448 8.17599C24.656 8.64799 23.776 8.98399 22.84 9.16799C22.088 8.36799 21.024 7.87199 19.848 7.87199C17.584 7.87199 15.744 9.71199 15.744 11.976C15.744 12.296 15.784 12.608 15.848 12.912C12.44 12.744 9.416 11.104 7.392 8.62399C7.04 9.23199 6.84 9.93599 6.84 10.688C6.84 12.112 7.568 13.368 8.664 14.104C7.992 14.08 7.36 13.896 6.808 13.592C6.808 13.608 6.808 13.624 6.808 13.648C6.808 15.632 8.224 17.296 10.096 17.672C9.752 17.768 9.392 17.816 9.016 17.816C8.752 17.816 8.496 17.792 8.248 17.744C8.768 19.376 10.288 20.56 12.08 20.592C10.672 21.696 8.904 22.352 6.984 22.352C6.656 22.352 6.328 22.336 6.008 22.296C7.816 23.448 9.976 24.128 12.288 24.128Z" fill="white"/>
</svg>
